<svg id="Ebene_1" data-name="Ebene 1" xmlns="http://www.w3.org/2000/svg" viewBox="0 0 498.46 217.6"><defs><style>.cls-1{font-size:140.81px;font-family:Vogue-Regular, Vogue;}.cls-1,.cls-2{fill:#2b2b2a;}</style></defs><text class="cls-1" transform="translate(0 117.36)">Golden</text><path class="cls-2" d="M611.73,382a2,2,0,0,1,1.93-2c1.35,0,2.13,1.46,2.13,2.81a4.73,4.73,0,0,1-.21,1.41,7.62,7.62,0,0,0,3.18.68,11.23,11.23,0,0,0,7.77-3.55c.1-.1.62.21.42.42a12.76,12.76,0,0,1-8.81,3.91,11.5,11.5,0,0,1-2.92-.36c-2.14,4.89-7.19,10.16-10.27,9.79-4.06-.47,1.2-11.05,4.48-17.4,6.94-13.4,17.2-24.92,19.5-25.12,3.54-.32,1.14,6-.63,9.17-4.79,8.6-9.64,12.14-18.5,19.07-2.4,4.38-3.65,8.92-3.65,11.16,0,.93.26,1.51.78,1.51,1.41,0,5.73-3.86,7.66-8.34C613.08,384.74,611.73,383.39,611.73,382Zm16.15-20.48c1.67-2.71,3.34-8.34,1-8.13-3.18.31-10.64,10.94-18.35,25.85C616.78,375.1,622.46,370.51,627.88,361.55Zm-12.61,21.16c0-.63-.16-1.77-1-1.77-.37,0-.63.21-.63.52a3,3,0,0,0,1.51,2.45A4.24,4.24,0,0,0,615.27,382.71Zm10.89-4.12a2.69,2.69,0,0,1,2.45-2.5c1.3,0,.73,2.09-.68,3.54a4.46,4.46,0,0,0,3.18.11c.52-.16,1.2-.21.68.52a41.06,41.06,0,0,0-5.74,9.95c-.68,1.88.05,3.44,1.25,3.29,3.55-.47,10.22-6.83,14.18-12.09.1-.26.26.26.1.47-3.8,4.79-10.32,12.14-14.75,12.3-6,.2-2.65-6.15,2.56-13.5C627.09,380.62,626,379.74,626.16,378.59Zm35.74-1.25c.62-.42,2-.88,1.72-.1A122.81,122.81,0,0,1,655.49,394c6.62-5.16,12.82-9.54,17.09-12.77.32-.31.32.42.11.52-5.94,4.38-12,8.91-18,13.76-8,13.6-16.72,25.59-20,23.92-4.74-2.4,4.33-13,16.89-22.15,2-3.49,3.44-6.31,5.52-10.48-2.81,3.34-6.3,6.21-7.92,5.53s0-5.37,2.61-8.81c2.76-3.75,7.61-7.82,9.53-5.42A1.64,1.64,0,0,1,661.9,377.34Zm-26.79,41.33c2.29.83,7.92-6.72,15.48-19.8C639.07,406.89,631.25,417.26,635.11,418.67ZM636.52,391c.32-2.61,2.5-6.41,4.69-10.22a7.34,7.34,0,0,1,2.5-2.76c.37-.16,1.1-.16.94.26-.67,1.72-4.95,7.5-5.83,12.51-.68,3.75,7.14,0,15.37-9.38.42-.42.21.52-.21.93-4.48,4.64-10.32,10.74-15.32,11.26C636.78,393.81,636.37,392.35,636.52,391Zm9.38-19.65c.11-.89,1-1.93,1.78-1.46,1.35.83.36,3-.94,3.23C646,373.22,645.8,372.08,645.9,371.35Zm15,7.45c-1.57-2.81-5.21,1.67-7.46,5.06-1.56,2.71-3.23,6.46-2.39,6.88s5-3.24,7.4-6.73C659.35,382.08,660,380.78,660.86,378.8ZM670,389.54c-.67,1.46-1.51,3.33-2.86,3.33-.52,0-.63-.52-.42-1,11.47-24.18,24.39-40.34,27.93-42.42.84-.53,1.26.93,1.05,1.87-.84,3.6-8.29,15.06-20.8,29-1.14,2.09-2.29,4.22-3.44,6.46,5.06-6.15,9.33-9.22,10.37-9.85,1.25-.73,3.13-1,2.4,1.15-1.77,4.48-9,15-4.9,13.86,2.09-.62,5.42-2.29,13.76-10.63.42-.31.31-.1-.31.84-8,8.75-12.3,10.52-14.39,11.05-1.77.52-3.23-.53-2.5-2.82,1.36-4.27,5.84-9.8,5.53-12.19C678.52,380.1,674.66,383.91,670,389.54Zm5.84-11c10-11.41,21-26.68,19-28.45C694.47,349.88,685.45,361.6,675.86,378.59Zm14.79-3.39c-.31,0,.32-.46.63-.46,1.88-.11,3.6-.11,5.37-.11a49.72,49.72,0,0,1,3.18-4.17,4.28,4.28,0,0,1,2.55-1.61c.83-.11-.21,1-.68,1.66s-2.24,3.18-2.86,4.12c2.19.05,4.37.11,6.72.11.26,0,.16.46,0,.46-2.4,0-4.74.06-7.09.11-5.16,7.71-9.75,16.47-5.32,16.47,2.45,0,6.83-2.56,10.95-5.42,2.24-4.74,6.51-9.85,9.17-10.43,1.51-.31,2,.68,1.41,2.71-.68,2.4-5,6.68-8.44,7.93a15.47,15.47,0,0,0-.79,3.59c0,1.57.37,3,2.09,2.87,2.24-.26,7.19-2.35,15.89-11.73.16-.21,0,.68-.2.89-9.23,9.9-13.55,11.88-16.89,11.88-2.45,0-4.12-1.3-3.44-4.48a9.82,9.82,0,0,1,.63-2c-4.49,3.18-9.23,5.89-11.78,5.89-3,0-3.55-2.45-2.61-5.21a60.89,60.89,0,0,1,7.09-13C694.35,375.31,692.53,375.26,690.65,375.2ZM714,378.49c.26-1.41.06-2.14-.83-1.83-1.56.53-4.8,5-6.46,8.6C709.89,384.38,713.64,380.31,714,378.49Zm8.54.1a2.69,2.69,0,0,1,2.45-2.5c1.3,0,.73,2.09-.68,3.54a4.47,4.47,0,0,0,3.18.11c.52-.16,1.2-.21.68.52a41,41,0,0,0-5.73,9.95c-.68,1.88,0,3.44,1.25,3.29,3.54-.47,10.21-6.83,14.17-12.09.11-.26.26.26.11.47-3.81,4.79-10.32,12.14-14.75,12.3-6,.2-2.66-6.15,2.55-13.5C723.48,380.62,722.33,379.74,722.54,378.59Zm27.72.94c5.94,4.59-5.27,15.84-7.09,15.84-1.36,0-1.15-1.87.05-4.74,1.51-3.54,3.39-7.76,5.16-11.52a26.89,26.89,0,0,1-4.74-.57c-.42-.1.05-1.09.47-1a39.8,39.8,0,0,0,4.79.47c1.62-3.34,3.23-6.47,4.59-8.86a7.66,7.66,0,0,1,2.81-2.82c.32-.21.26.63.06,1-1.67,3.18-3.5,6.83-5.37,10.69a42.19,42.19,0,0,0,12.4-2.4c11.73-21.73,20.38-27.05,22.15-24.08,3.91,6.57-6.36,17.67-19.49,23.61-2.19,4-4.48,8.34-6.67,12.77,5.42-6.88,10.11-10.37,11.26-11.05s3.12-1,2.29,1.2c-1.72,4.53-8.81,15-4.9,13.86,2.24-.68,5.68-2.29,13.86-10.58.42-.47.47,0-.26.78-7.82,8.81-12.4,10.53-14.43,11.11-1.83.52-3.24-.53-2.51-2.82,1.41-4.32,5.84-9.9,5.53-12.25-3,2-7.14,6.1-11.94,11.94-.73,1.67-.88,2.5-2.81,3.7-.26.15-.73-.16-.63-.42,2.82-6.51,5.53-12.09,8.13-16.94a43.15,43.15,0,0,1-12.5,2.71Zm-5.37,12.3c-.52,1.36,0,1.62,1,.73,5.73-5.11,6.78-10,4.06-12.4C748.22,383.86,746.51,387.76,744.89,391.83Zm40.08-40c-2.45-3.12-10.16,7.51-18.5,22.52C780,368.27,788.62,356.55,785,351.8Zm-8,41.18c-1.67,0-2.19-2.09-.16-5.63,3.7-6.62,8.92-9.85,11-9.85a1.58,1.58,0,0,1,1.77,1.67,6.76,6.76,0,0,1,2.56-2c.36-.16.88-.06.67.26-1.3,2.29-7.19,10.89-7.61,13.7-.26,1.46.53,1.93,1.67,1.67,2.35-.57,6.47-2.55,15.06-11.41.16-.21.42.21,0,.67-6.2,6.41-12,11.11-15.53,11.78-4.12.78-3.54-2.86-2.29-5.57C781.2,391.41,778.75,393,776.93,393Zm10.74-14.75c-2.45,0-8.76,7.29-10,12.19-.21.78.42,1.31,1.46.89,1.88-.78,5-3.65,7-6.88,1.15-1.93,2.25-3.65,2.71-4.33C789,378.64,788.5,378.23,787.67,378.23Zm9.42,14.33a3.65,3.65,0,0,1-2,1.77c-.37.16-.78,0-.68-.36.26-.94,3.29-5.94,5-9.44.73-1.51,1.31-3.49,2.14-4.32a3.62,3.62,0,0,1,2.76-1.2c.42.16-.52,1.46-.67,1.77-.37.63-2.09,3.49-4.9,9,8-9.75,10.63-12.56,12.76-12.56,1.31,0,1.26,1.4.06,3.85-1.57,3.24-4.49,8.13-4.49,10.53,0,1,.42,1.36,1,1.36,1.45,0,5.94-2,14.38-11.68.63-.68.57-.05.1.52-8.75,10.32-13.7,12.25-16,12.25-1.2,0-1.72-.68-1.72-1.82,0-3.81,4.9-10.58,5.32-13.61C808.92,379.27,805.07,382.71,797.09,392.56Zm37.15-13c5.94,4.59-5.26,15.84-7.09,15.84-1.35,0-1.14-1.87.06-4.74,1.51-3.54,3.38-7.76,5.16-11.52a26.88,26.88,0,0,1-4.75-.57c-.41-.1,0-1.09.47-1a40,40,0,0,0,4.8.47c1.61-3.34,3.23-6.47,4.58-8.86a7.61,7.61,0,0,1,2.82-2.82c.31-.21.26.63.05,1-1.67,3.18-3.49,6.83-5.37,10.69a42.26,42.26,0,0,0,12.41-2.4c11.72-21.73,20.37-27.05,22.15-24.08,3.9,6.57-6.36,17.67-19.5,23.61-2.19,4-4.48,8.34-6.67,12.77,5.42-6.88,10.11-10.37,11.26-11.05s3.13-1,2.29,1.2c-1.72,4.53-8.8,15-4.9,13.86,2.25-.68,5.68-2.29,13.87-10.58.41-.47.47,0-.26.78-7.82,8.81-12.41,10.53-14.44,11.11-1.82.52-3.23-.53-2.5-2.82,1.41-4.32,5.84-9.9,5.52-12.25-3,2-7.14,6.1-11.93,11.94-.73,1.67-.89,2.5-2.82,3.7-.26.15-.73-.16-.62-.42,2.81-6.51,5.52-12.09,8.13-16.94a43.21,43.21,0,0,1-12.51,2.71Zm-5.37,12.3c-.52,1.36,0,1.62,1,.73,5.74-5.11,6.78-10,4.07-12.4C832.21,383.86,830.49,387.76,828.87,391.83Zm40.08-40c-2.45-3.12-10.16,7.51-18.5,22.52C864,368.27,872.6,356.55,869,351.8ZM865.71,392c3-.11,8.08-3.55,15.58-10.74.21-.21.26.31-.15.68-9.85,9.64-13.5,11.41-16.79,11.57-2.29.1-3.59-1.46-2.91-4.22,1.66-6.94,7.45-12.77,10.37-14,1.61-.68,2.39.16,1.87,1.67a12.73,12.73,0,0,1-8,6.72C863,389.69,863.57,392,865.71,392Zm7.19-15c.16-.57.05-1.67-1-1.1a16.54,16.54,0,0,0-5.68,6.73C868.78,382.19,872.17,379.32,872.9,377Zm17.19,2.87c.52-3.81,3.65-4.54,4.8-3,.31.42-.11,2-.42.78-.52-2-2.35-.41-2.5,1.41s.41,4.85.1,8.08c3.91-2,8.29-3.54,11.62-6.05.47-.36.32.47-.26.89-3.49,2.4-7.76,3.75-11.41,5.58-.52,3.7-3.13,6.46-5.68,6.09-1.2-.15-2-1.61-.37-3a28,28,0,0,1,4.17-2.55C890.3,385.68,889.73,382.29,890.09,379.9ZM886.5,391c-1,1-.84,1.82.36,1.66,1.51-.15,3.07-1.87,3.23-4.11A15.59,15.59,0,0,0,886.5,391Zm25.06-12.15a8,8,0,0,1,3.39-3.54c.31-.16.31.62.1.94a69.5,69.5,0,0,0-5.94,11.05c-1.56,3.7-2.29,7.24.31,6.93,2.14-.26,6.05-2.3,13.55-12.72.21-.36.42.26.11.73-8,11.47-12.2,12.67-14.44,12.87-4.22.37-4.33-3.12-1-9.38-3.91,4.75-6.41,6.88-8.6,6.88-1.15,0-1.15-1.46-.73-2.4a74.17,74.17,0,0,1,4.9-9.12c1.2-2,3.28-4,4.22-4.22.31-.1.68.47.42.73-5.27,8.18-8,13-7.19,13.55s4.53-3.39,7.5-6.72Zm7.18,13.71a3.65,3.65,0,0,1-2,1.77c-.36.16-.78,0-.68-.36.27-.94,3.29-5.94,5-9.44.73-1.51,1.3-3.49,2.13-4.32a3.64,3.64,0,0,1,2.77-1.2c.41.16-.53,1.46-.68,1.77-.37.63-2.09,3.49-4.9,9,8-9.75,10.63-12.56,12.77-12.56,1.3,0,1.25,1.4,0,3.85-1.56,3.24-4.48,8.13-4.48,10.53,0,1,.41,1.36,1,1.36,1.46,0,5.94-2,14.38-11.68.63-.68.58-.05.11.52-8.76,10.32-13.71,12.25-16,12.25-1.2,0-1.72-.68-1.72-1.82,0-3.81,4.9-10.58,5.31-13.61C930.58,379.27,926.72,382.71,918.74,392.56Z" transform="translate(-519.54 -201.95)"/></svg>